<svg xmlns="http://www.w3.org/2000/svg" xmlns:xlink="http://www.w3.org/1999/xlink" viewBox="0 0 116.68 144.32"><defs><style>.cls-1{fill:#e4eef3;stroke:#bebebe;stroke-linecap:round;stroke-linejoin:round;stroke-width:1.68px;}.cls-1,.cls-7{opacity:0.5;}.cls-1,.cls-5,.cls-7{isolation:isolate;}.cls-2{fill:url(#radial-gradient);}.cls-3{fill:url(#linear-gradient);}.cls-4{fill:url(#linear-gradient-2);}.cls-5{fill:#c3ccd1;opacity:0.4;}.cls-6{fill:none;}.cls-7{fill:#b5bdc2;}</style><radialGradient id="radial-gradient" cx="-236.88" cy="30.31" r="130.71" gradientTransform="matrix(1.24, 0, 0, -0.7, 363.37, 66.53)" gradientUnits="userSpaceOnUse"><stop offset="0" stop-color="#ffeea6"/><stop offset="0.21" stop-color="#ffeda2"/><stop offset="0.43" stop-color="#ffeb96"/><stop offset="0.64" stop-color="#ffe782"/><stop offset="0.86" stop-color="#ffe265"/><stop offset="1" stop-color="#ffde4e"/></radialGradient><linearGradient id="linear-gradient" x1="-1.74" y1="125.3" x2="120.35" y2="125.3" gradientTransform="matrix(1, 0, 0, -1, 0, 145.43)" gradientUnits="userSpaceOnUse"><stop offset="0.12" stop-color="#dc903f"/><stop offset="0.51" stop-color="#fff" stop-opacity="0.2"/><stop offset="0.56" stop-color="#fefcf9" stop-opacity="0.23"/><stop offset="0.62" stop-color="#fbf2e8" stop-opacity="0.3"/><stop offset="0.69" stop-color="#f6e1cb" stop-opacity="0.42"/><stop offset="0.76" stop-color="#eecaa3" stop-opacity="0.58"/><stop offset="0.84" stop-color="#e5ad71" stop-opacity="0.79"/><stop offset="0.9" stop-color="#dc903f"/></linearGradient><linearGradient id="linear-gradient-2" x1="-1.74" y1="5.81" x2="120.35" y2="5.81" xlink:href="#linear-gradient"/></defs><title>1Asset 1</title><g id="Layer_2" data-name="Layer 2"><g id="Layer_1-2" data-name="Layer 1"><g id="Layer_16" data-name="Layer 16"><path class="cls-1" d="M115.83,3.94c0-3.43-7.27-3.09-7.27-3.09H10.72S3.72.66,2,2.57C.44,4.24.43,7.11,2.15,8.27a16.36,16.36,0,0,1,6.4,13.37V124.7s-1,18.78,12.81,18.78H100.8c13.81,0,12.8-18.78,12.8-18.78v-103s.17-11.25.06-13A2.2,2.2,0,0,1,115,6.35,3,3,0,0,0,115.83,3.94Z"/><path class="cls-2" d="M96.65,89.65a23.35,23.35,0,0,0,2.52-.19c-1.8.07-3.62.12-5.44.17C94.7,89.66,95.68,89.68,96.65,89.65Z"/><path class="cls-2" d="M57,136.1c-10.12,0-20.3-.22-30.41.41-3.75.23-7.45.29-11.21.23a18.54,18.54,0,0,1-3.32-.29c2.1,2.39,5.85,4.2,10.55,4.86,10.15,1.47,23.14,2.2,38.6,2.2s28.44-.73,38.59-2.2c4.77-.68,8.58-2.53,10.65-5C92.66,136.29,74.81,136.14,57,136.1Z"/><path class="cls-3" d="M34.41,20.11c-2.37-.06-4.73-.1-7.1-.08a.64.64,0,0,1-.08.2c1.93-.07,3.85-.12,5.75-.12Z"/><path class="cls-4" d="M88.09,136.82c-7.19-.38-14.79.09-22-.89-1.27.17-2.54.32-3.83.39-3.07.17-6.21.12-9.28.1-6.83-.07-13.89.19-20.68-.59a1.3,1.3,0,0,1-.33-.07,25,25,0,0,1-3.22.6c-6.1.52-11.7-.35-17.77-.92l-.37-.06c.34,3.26,5.29,6,12.3,6.8a362.64,362.64,0,0,0,38.47,1.68,362.92,362.92,0,0,0,38.49-1.68c6.1-.68,10.65-2.86,11.94-5.57C103.89,136.83,96,137.26,88.09,136.82Z"/><path class="cls-5" d="M115.83,3.94c0-3.43-7.27-3.09-7.27-3.09H10.72S3.72.66,2,2.57C.44,4.24.43,7.11,2.15,8.27a16.36,16.36,0,0,1,6.4,13.37V124.7s-1,18.78,12.81,18.78H100.8c13.81,0,12.8-18.78,12.8-18.78v-103s.17-11.25.06-13A2.2,2.2,0,0,1,115,6.35,3,3,0,0,0,115.83,3.94Zm-15.52.58C99.88,6.55,96,6.89,96,6.89L42.9,9.08H78.46l.47,116.7a10.43,10.43,0,0,1-9.75,9H23.76c-12.23,0-12.37-15.73-12.37-15.73V21.8C11.1,14.69,9.23,10.63,6.93,8.43S4.48,5.35,4.48,5.35C3.33,2,7.64,2.13,7.64,2.13h89.1C101,2.15,100.31,4.52,100.31,4.52Z"/><path class="cls-6" d="M11.39,119.06s.14,15.71,12.37,15.71h45.4a10.38,10.38,0,0,0,9.75-9L78.46,9.09H42.9L96,6.9s3.88-.35,4.31-2.37c0,0,.73-2.37-3.6-2.37H7.64S3.33,2,4.48,5.35c0,0,.14.84,2.45,3s4.17,6.26,4.46,13.36Z"/><path class="cls-7" d="M115.83,3.94c0-3.43-7.27-3.09-7.27-3.09H98.21a1.41,1.41,0,0,0,.73.17c5.28.12,12.82-.22,13.27,2.66.73,4.82-9.39,4.44-9.39,4.44l.22,120.3C100.84,141.74,90.2,141,90.2,141H20.59c-7.55-.64-10.86-7.49-10.86-7.49v.38c1.46,4.77,4.63,9.61,11.65,9.61H100.8c13.81,0,12.8-18.78,12.8-18.78v-103s.17-11.25.06-13A2.2,2.2,0,0,1,115,6.35,3,3,0,0,0,115.83,3.94Z"/></g></g></g></svg>