<svg xmlns="http://www.w3.org/2000/svg" xmlns:xlink="http://www.w3.org/1999/xlink" viewBox="0 0 116.68 144.32"><defs><style>.cls-1{fill:#e4eef3;stroke:#bebebe;stroke-linecap:round;stroke-linejoin:round;stroke-width:1.68px;}.cls-1,.cls-7{opacity:0.5;}.cls-1,.cls-5,.cls-7{isolation:isolate;}.cls-2{fill:url(#radial-gradient);}.cls-3{fill:url(#linear-gradient);}.cls-4{fill:url(#linear-gradient-2);}.cls-5{fill:#c3ccd1;opacity:0.4;}.cls-6{fill:none;}.cls-7{fill:#b5bdc2;}</style><radialGradient id="radial-gradient" cx="-236.88" cy="30.31" r="130.71" gradientTransform="matrix(1.24, 0, 0, -0.7, 363.37, 66.52)" gradientUnits="userSpaceOnUse"><stop offset="0" stop-color="#ffeea6"/><stop offset="0.21" stop-color="#ffeda2"/><stop offset="0.43" stop-color="#ffeb96"/><stop offset="0.64" stop-color="#ffe782"/><stop offset="0.86" stop-color="#ffe265"/><stop offset="1" stop-color="#ffde4e"/></radialGradient><linearGradient id="linear-gradient" x1="-1.74" y1="125.3" x2="120.35" y2="125.3" gradientTransform="matrix(1, 0, 0, -1, 0, 145.43)" gradientUnits="userSpaceOnUse"><stop offset="0.12" stop-color="#dc903f"/><stop offset="0.51" stop-color="#fff" stop-opacity="0.2"/><stop offset="0.56" stop-color="#fefcf9" stop-opacity="0.23"/><stop offset="0.62" stop-color="#fbf2e8" stop-opacity="0.3"/><stop offset="0.69" stop-color="#f6e1cb" stop-opacity="0.42"/><stop offset="0.76" stop-color="#eecaa3" stop-opacity="0.58"/><stop offset="0.84" stop-color="#e5ad71" stop-opacity="0.79"/><stop offset="0.9" stop-color="#dc903f"/></linearGradient><linearGradient id="linear-gradient-2" x1="-1.74" y1="11.1" x2="120.35" y2="11.1" xlink:href="#linear-gradient"/></defs><title>3Asset 1</title><g id="Layer_2" data-name="Layer 2"><g id="Layer_1-2" data-name="Layer 1"><g id="Layer_16" data-name="Layer 16"><path class="cls-1" d="M115.83,3.94c0-3.43-7.27-3.09-7.27-3.09H10.72S3.72.66,2,2.57C.44,4.24.43,7.11,2.15,8.27a16.36,16.36,0,0,1,6.4,13.37V124.7s-1,18.78,12.81,18.78H100.8c13.81,0,12.8-18.78,12.8-18.78v-103s.17-11.25.06-13A2.2,2.2,0,0,1,115,6.35,3,3,0,0,0,115.83,3.94Z"/><path class="cls-2" d="M96.65,89.65a23.35,23.35,0,0,0,2.52-.19c-1.8.07-3.62.12-5.44.17C94.7,89.66,95.68,89.68,96.65,89.65Z"/><path class="cls-2" d="M98.94,126.49c-3.51,1-7.32.81-11,.79a3.39,3.39,0,0,1-2.69-1.36c-2.12.14-4.24.28-6.36.39-7,.37-14.09.26-21.14.24-13.78,0-27.56-.28-41.33-.31l-.43.11c-1.3.3-2.63.54-3.94.79h0c-.33,0-.65.11-1,.15a2.82,2.82,0,0,1-.82,0v4.83c0,4.38,5.12,8.19,12.35,9.22,10.15,1.46,23.14,2.19,38.6,2.19s28.44-.73,38.59-2.19c7.31-1,12.37-4.83,12.37-9.22v-5.76C107.79,126.73,103.37,126.5,98.94,126.49Z"/><path class="cls-3" d="M34.41,20.11c-2.37-.06-4.73-.1-7.1-.08a.64.64,0,0,1-.08.2c1.93-.07,3.85-.12,5.75-.12Z"/><path class="cls-4" d="M111.13,127c-7.61,0-15.17.66-22.74-.18-7.92-.88-16-.73-24-.73-16.35,0-32.69.61-49,.66a8.07,8.07,0,0,1-1.39,0,3.62,3.62,0,0,1-2.71-1.39,4,4,0,0,1-.73-.57V135c0,3.42,5.07,6.36,12.33,7.15a362.36,362.36,0,0,0,38.48,1.69,362.49,362.49,0,0,0,38.48-1.69c7.26-.79,12.33-3.73,12.33-7.15v-8.16A3.69,3.69,0,0,1,111.13,127Z"/><path class="cls-5" d="M115.83,3.94c0-3.43-7.27-3.09-7.27-3.09H10.72S3.72.66,2,2.57C.44,4.24.43,7.11,2.15,8.27a16.36,16.36,0,0,1,6.4,13.37V124.7s-1,18.78,12.81,18.78H100.8c13.81,0,12.8-18.78,12.8-18.78v-103s.17-11.25.06-13A2.2,2.2,0,0,1,115,6.35,3,3,0,0,0,115.83,3.94Zm-15.52.58C99.88,6.55,96,6.89,96,6.89L42.9,9.08H78.46l.47,116.7a10.43,10.43,0,0,1-9.75,9H23.76c-12.23,0-12.37-15.73-12.37-15.73V21.8C11.1,14.69,9.23,10.63,6.93,8.43S4.48,5.35,4.48,5.35C3.33,2,7.64,2.13,7.64,2.13h89.1C101,2.15,100.31,4.52,100.31,4.52Z"/><path class="cls-6" d="M11.39,119.06s.14,15.71,12.37,15.71h45.4a10.38,10.38,0,0,0,9.75-9L78.46,9.09H42.9L96,6.9s3.88-.35,4.31-2.37c0,0,.73-2.37-3.6-2.37H7.64S3.33,2,4.48,5.35c0,0,.14.84,2.45,3s4.17,6.26,4.46,13.36Z"/><path class="cls-7" d="M115.83,3.94c0-3.43-7.27-3.09-7.27-3.09H98.21a1.41,1.41,0,0,0,.73.17c5.28.12,12.82-.22,13.27,2.66.73,4.82-9.39,4.44-9.39,4.44l.22,120.3C100.84,141.74,90.2,141,90.2,141H20.59c-7.55-.64-10.86-7.49-10.86-7.49v.38c1.46,4.77,4.63,9.61,11.65,9.61H100.8c13.81,0,12.8-18.78,12.8-18.78v-103s.17-11.25.06-13A2.2,2.2,0,0,1,115,6.35,3,3,0,0,0,115.83,3.94Z"/></g></g></g></svg>