<svg xmlns="http://www.w3.org/2000/svg" xmlns:xlink="http://www.w3.org/1999/xlink" viewBox="0 0 82.79 107.56"><defs><style>.cls-1{fill:url(#linear-gradient);}</style><linearGradient id="linear-gradient" y1="53.78" x2="82.79" y2="53.78" gradientUnits="userSpaceOnUse"><stop offset="0" stop-color="#333"/><stop offset="0.39" stop-color="#353535"/><stop offset="0.53" stop-color="#3c3c3c"/><stop offset="0.63" stop-color="#474747"/><stop offset="0.71" stop-color="#585858"/><stop offset="0.78" stop-color="#6e6e6e"/><stop offset="0.84" stop-color="#8a8a8a"/><stop offset="0.9" stop-color="#aaa"/><stop offset="0.95" stop-color="#d0d0d0"/><stop offset="0.99" stop-color="#f9f9f9"/><stop offset="1" stop-color="#fff"/></linearGradient></defs><title>juicer handleAsset 6</title><g id="Layer_2" data-name="Layer 2"><g id="Layer_1-2" data-name="Layer 1"><path class="cls-1" d="M2.7,106.11l1-61V16.84a.67.67,0,0,0-.25-.52C2.84,15.87.75,15.26.47,14.5.15,14,0,14.17,0,13.88V3.41A.63.63,0,0,1,.25,2.9C1.14,2.2,4.32-.08,8,0H77.7a.54.54,0,0,1,.22,0c.62.22,3.74,1.39,4.78,3.09a.67.67,0,0,1,.09.34V14.6a.81.81,0,0,1-.05.27c-.26.57-1.42,2.85-3.52,2.46a.65.65,0,0,0-.76.64l-.74,87.35v1.58a.66.66,0,0,1-.67.66L2.7,106.11"/></g></g></svg>