<svg xmlns="http://www.w3.org/2000/svg" xmlns:xlink="http://www.w3.org/1999/xlink" viewBox="0 0 250 262.57"><defs><style>.cls-1{fill:url(#linear-gradient);}.cls-2{fill:url(#linear-gradient-2);}.cls-3{fill:#3a3c3d;}.cls-4{fill:url(#linear-gradient-3);}.cls-5{fill:url(#linear-gradient-4);}.cls-6{fill:#262626;}.cls-7{fill:#ebe8e8;}.cls-8{fill:url(#linear-gradient-5);}.cls-9{fill:#cacaca;}.cls-10{fill:#cbc6c6;}.cls-11{fill:url(#linear-gradient-6);}</style><linearGradient id="linear-gradient" y1="133.3" x2="70.04" y2="133.3" gradientUnits="userSpaceOnUse"><stop offset="0"/><stop offset="0.53" stop-color="#4d4d4d"/><stop offset="0.63" stop-color="#464646"/><stop offset="0.77" stop-color="#313131"/><stop offset="0.93" stop-color="#0f0f0f"/><stop offset="1"/></linearGradient><linearGradient id="linear-gradient-2" x1="70.04" y1="139.6" x2="220.13" y2="139.6" gradientUnits="userSpaceOnUse"><stop offset="0" stop-color="#fff"/><stop offset="0.08" stop-color="#f1f1f1"/><stop offset="0.24" stop-color="#dbdbdb"/><stop offset="0.34" stop-color="#d3d3d3"/><stop offset="0.66" stop-color="#d3d3d3"/><stop offset="0.72" stop-color="#d3d3d3"/><stop offset="0.8" stop-color="#dadada"/><stop offset="0.92" stop-color="#eee"/><stop offset="1" stop-color="#fff"/></linearGradient><linearGradient id="linear-gradient-3" x1="135.55" y1="74.55" x2="170.15" y2="74.55" gradientUnits="userSpaceOnUse"><stop offset="0" stop-color="#e6e6e6"/><stop offset="0.34" stop-color="#e1e1e1"/><stop offset="0.73" stop-color="#d4d4d4"/><stop offset="0.75" stop-color="#d3d3d3"/><stop offset="0.96" stop-color="#d3d3d3"/><stop offset="1" stop-color="#d3d3d3"/><stop offset="1" stop-color="#ccc"/><stop offset="1" stop-color="#b8b8b8"/><stop offset="1" stop-color="#989898"/><stop offset="1" stop-color="#7a7a7a"/></linearGradient><linearGradient id="linear-gradient-4" x1="135.52" y1="117.66" x2="170.09" y2="117.66" xlink:href="#linear-gradient-3"/><linearGradient id="linear-gradient-5" x1="69.73" y1="55.05" x2="250" y2="55.05" gradientUnits="userSpaceOnUse"><stop offset="0" stop-color="#333"/><stop offset="0.48" stop-color="#353535"/><stop offset="0.66" stop-color="#3c3c3c"/><stop offset="0.78" stop-color="#474747"/><stop offset="0.88" stop-color="#585858"/><stop offset="0.96" stop-color="#6e6e6e"/><stop offset="1" stop-color="#7a7a7a"/></linearGradient><linearGradient id="linear-gradient-6" x1="9.26" y1="11.91" x2="129.9" y2="11.91" gradientUnits="userSpaceOnUse"><stop offset="0" stop-color="#333"/><stop offset="0.28" stop-color="#353535"/><stop offset="0.38" stop-color="#3c3c3c"/><stop offset="0.45" stop-color="#474747"/><stop offset="0.5" stop-color="#585858"/><stop offset="0.55" stop-color="#6e6e6e"/><stop offset="0.57" stop-color="#7a7a7a"/><stop offset="1" stop-color="#333"/></linearGradient></defs><title>juicerAsset 5</title><g id="Layer_2" data-name="Layer 2"><g id="Layer_1-2" data-name="Layer 1"><path class="cls-1" d="M0,15.19.5,45.47.91,66.56l.6,29.37L2,126.21l.3,23.72s5.15,2.12,5.15,3.53.81,34.22.81,34.22V204l.6,21.29v9.89l.41,7s.4.6,3.73,1.71,5.15,2.43,8.88,3.13,4.85,1.42,9.19,2,5.24.91,9.58,1.41,6.06,1.22,9.79,1.32,10.1,0,10.1,0l7.06,0H70V21.45l-6.66.2-10,.1H46.23s4.34-.1-3.23-.1-7.47-.4-14.94-.61-8.88-.65-13.5-1S5.25,18.5,3.66,17.59A26.6,26.6,0,0,1,0,14.79"/><polygon class="cls-2" points="70.04 29.52 70.04 170.12 70.04 246.11 82.16 246.11 90.33 246.11 103.65 246.42 121.56 247.29 141.05 248.76 158.99 249.67 180.33 249.67 195.78 249.67 205.01 248.69 214.32 247.4 220.13 246.01 220.13 130.96 220.13 30.83 207.81 31.14 198.43 31.59 190.1 31.59 181.47 31.44 168.9 31.59 156.19 31.29 144.07 31.14 135.9 30.98 125.15 30.68 112.28 30.38 104.11 30.23 96.54 29.52 88.21 29.52 80.19 29.52 74.44 29.52 70.04 29.52"/><path class="cls-3" d="M70,246.11l24.13,1.11h16.35l17.41.55,12.08.92,17.53.91,22.79.07h17L209.8,248l10.33-2,7.46-1.41,7.47-2.83,4.85-2,3.63-2.63,1.62-2.62,1.41-2.42v-1h.4v10l-1,1.81-2.32,1.92-1.82,1.72-2.62,1.21-6.06,2.83-3.33,1-3.73,1-8.88,1.92h-2.63l.11,2-.31,3-.6,1-1.72.8-1.51.61-3.54.61h-9.38l-5.25-.61-2.32-1-.61-1.21-.1-1.51-.1-.71-6,.2-11.71.2-10.5-.2s-13.42-.2-18.67-.4S119.3,256,119.3,256s.7,1.71-.31,2.42a8.67,8.67,0,0,1-2.72,1.51c-1.41.51-4.24,1.11-4.24,1.11l-3.53.1-4,.1-3.43-.1-3.13-.1-1.92-.6-1.61-.71-1.31-1.41L92.65,257l.1-1.81-.1-.81L79.43,254l-8.07-.41L70,252.93Z"/><path class="cls-3" d="M128.08,30.43l1,46.63v55.71s0,.86,1.21,3.24,1.89,4.39,3.52,6,0,.9,4.65,4a30.67,30.67,0,0,0,8,4,20.71,20.71,0,0,0,3.4,1.14c1.71.37,7.69,0,7.69,0a19.47,19.47,0,0,0,6.66-2.43,44.51,44.51,0,0,0,5.15-3.9l4-4.42,2.57-4.51.64-1.78.38-2.38V100.29l.15-20V30.43Z"/><polygon class="cls-4" points="135.55 30.83 135.55 112.38 135.55 117.03 170.15 118.26 170.15 111.56 170.15 91.2 170.15 75.27 170.15 61.95 170.15 46.92 170.15 33.33 170.15 31.48 135.55 30.83"/><path class="cls-5" d="M135.52,112.81v4.7a14.14,14.14,0,0,0,.88,3.63,19.79,19.79,0,0,0,3.13,4.62,22.17,22.17,0,0,0,4.29,3.63,20.69,20.69,0,0,0,4.47,2.2,4.75,4.75,0,0,0,1.66.55,67.11,67.11,0,0,0,7.57,0,23.08,23.08,0,0,0,3.84-2.07c1.74-1.21,3.33-2.5,3.33-2.5a27.82,27.82,0,0,0,2.7-2.82,27.37,27.37,0,0,0,1.79-3.18,20.71,20.71,0,0,0,.91-2.5v-16H135.52v9.76Z"/><polygon class="cls-6" points="2.62 150.13 3.73 150.13 6.16 152.86 6.86 152.86 7.87 155.48 7.87 162.14 7.87 172.34 7.87 186.67 8.28 200.59 8.28 214.83 8.68 229.87 8.68 235.42 5.65 235.42 3.53 235.42 3.03 205.54 2.62 185.25 2.62 166.58 2.62 159.32 2.62 154.37 2.62 150.13"/><ellipse class="cls-7" cx="153.71" cy="114.94" rx="10.29" ry="11"/><path class="cls-8" d="M70,21.45v8.07h35.83l15.95.91h49.25l15.55.4,13.53.68,11.09-1.08h5.25l10.09-.91h7.88l5.65-.91,2-.6V90.86l6.66-3.51L250,82.71V29.77l-.33-10.52s-.15.68-4.69,1.44a91.45,91.45,0,0,1-11.73,1.36c-6.89.53-14.31,1.52-20.74,1.82s-11.28.76-19.84.83-12,.15-23-.15S157,24.17,145.08,24,123.26,23,111.68,23s-27.18-.38-32.17-.38a33.66,33.66,0,0,1-9.78-1.2"/><path class="cls-9" d="M14.53,3.08s.41-1,2.68-1.41S24.73.81,24.73.81L31.59.4,40.32,0h86.8V.35l.13,1.47V12H119l-8.29-.58L99,11.42l-9.61-.68-10.94-.57L64.56,9.56,50.93,8.84l-11.2-.56-5.91-.61L26.18,7,19.33,6.5A8.93,8.93,0,0,1,16.68,6a3.69,3.69,0,0,1-2.15-1.6A1.62,1.62,0,0,1,14.53,3.08Z"/><path class="cls-10" d="M213.06,4.09v7.77H228.6a15.46,15.46,0,0,0,3.54-.71,21.76,21.76,0,0,0,4-1.46,4.32,4.32,0,0,0,1-1.14,2.18,2.18,0,0,0,.25-1.49,3.26,3.26,0,0,0-.9-1.18A2.5,2.5,0,0,0,235,5.35c-.83-.1-5.9-.61-5.9-.61l-5.12-.32-1.72-.08h-4.79Z"/><path class="cls-11" d="M13.57,3.58l-2.72,5.6L9.26,12a5.27,5.27,0,0,0,2.52,2.73c2.05,1.13,6.34,1.53,6.34,1.53s6.05.61,8,.76,3.41.3,7.65.46,11.35.45,15.44.53,32.12,1.28,32.12,1.28l22.91,1h25.33s.91-.41-.4-1.52a68,68,0,0,0-6.56-3.93,7.32,7.32,0,0,0-2.83-1.11c-1.51-.21-12.21.1-12.21.1s-3.53-.31-9.08-.31-6.46,0-11.61-.1-4.34-.2-11.51-.5-11.7-.1-16.85-.3-8.78-1.22-13.22-1.22-7.07-.4-12.52-.8-9.89-.61-12.31-1.72S16.05,7.17,14.94,6A5.65,5.65,0,0,1,13.57,3.58Z"/></g></g></svg>